<?xml version="1.0" encoding="UTF-8"?>
<svg width="24px" height="24px" viewBox="0 0 24 24" version="1.1" xmlns="http://www.w3.org/2000/svg"
	 xmlns:xlink="http://www.w3.org/1999/xlink">
	<!-- Generator: Sketch 53.2 (72643) - https://sketchapp.com -->
	<title>Group 5</title>
	<desc>Created with Sketch.</desc>
	<g id="Page-1" stroke="none" stroke-width="1" fill="none" fill-rule="evenodd">
		<g id="web" transform="translate(-350.000000, -211.000000)">
			<g id="Group-10" transform="translate(350.000000, 205.000000)">
				<g id="Group-5" transform="translate(0.000000, 6.000000)">
					<circle id="Oval" stroke="#E6457A" stroke-width="1.8" fill-rule="nonzero" cx="12" cy="12"
							r="11.1"></circle>
					<path
						d="M17.2411489,9.45800712 C17.3226977,9.19964413 17.2411489,9.01174377 16.880004,9.01174377 L15.6800708,9.01174377 C15.3771751,9.01174377 15.2373771,9.17615658 15.1558282,9.35231317 C15.1558282,9.35231317 14.5383869,10.855516 13.676299,11.8302491 C13.396703,12.1120996 13.2685548,12.2060498 13.1171069,12.2060498 C13.035558,12.2060498 12.9307095,12.1120996 12.9307095,11.8537367 L12.9307095,9.44626335 C12.9307095,9.14092527 12.8375108,9 12.5812144,9 L10.693941,9 C10.5075436,9 10.3910453,9.14092527 10.3910453,9.28185053 C10.3910453,9.57544484 10.8220892,9.64590747 10.8686885,10.4679715 L10.8686885,12.2530249 C10.8686885,12.6405694 10.7987895,12.711032 10.6473416,12.711032 C10.2395974,12.711032 9.24936132,11.1960854 8.65521968,9.46975089 C8.53872132,9.12918149 8.42222296,9 8.11932722,9 L6.90774426,9 C6.55824918,9 6.5,9.16441281 6.5,9.3405694 C6.5,9.65765125 6.90774426,11.2548043 8.39892328,13.3686833 C9.38915935,14.8131673 10.7987895,15.5882562 12.0686217,15.5882562 C12.8375108,15.5882562 12.9307095,15.4120996 12.9307095,15.1185053 L12.9307095,14.0263345 C12.9307095,13.6740214 13.0006085,13.6153025 13.2452551,13.6153025 C13.4200026,13.6153025 13.7345482,13.7092527 14.4451882,14.4021352 C15.2606767,15.2241993 15.4004748,15.6 15.8548184,15.6 L17.0547515,15.6 C17.4042466,15.6 17.5673443,15.4238434 17.4741456,15.083274 C17.3692971,14.7427046 16.9732026,14.2494662 16.4606099,13.6622776 C16.1810138,13.333452 15.7616197,12.969395 15.6334715,12.7932384 C15.458724,12.558363 15.5053233,12.4644128 15.6334715,12.2530249 C15.6218217,12.2530249 17.089701,10.1626335 17.2411489,9.45800712"
						id="Path" fill="#E6457A"></path>
				</g>
			</g>
		</g>
	</g>
</svg>
